<svg width="614" height="256" viewBox="0 0 614 256" fill="none" xmlns="http://www.w3.org/2000/svg">
<g clip-path="url(#clip0_1_2)">
<path d="M470.094 0H143.906C64.429 0 0 26.8629 0 60V196C0 229.137 64.429 256 143.906 256H470.094C549.571 256 614 229.137 614 196V60C614 26.8629 549.571 0 470.094 0Z" fill="#5865F2"/>
<mask id="mask0_1_2" style="mask-type:luminance" maskUnits="userSpaceOnUse" x="58" y="51" width="200" height="155">
<path d="M258 51H58V205.93H258V51Z" fill="white"/>
</mask>
<g mask="url(#mask0_1_2)">
<path d="M227.308 64.7966C214.561 58.9476 200.892 54.6383 186.599 52.1701C186.339 52.1225 186.079 52.2415 185.945 52.4796C184.187 55.6064 182.239 59.6856 180.876 62.8918C165.503 60.5904 150.21 60.5904 135.153 62.8918C133.789 59.6143 131.771 55.6064 130.005 52.4796C129.871 52.2495 129.611 52.1305 129.35 52.1701C115.066 54.6304 101.396 58.9397 88.6411 64.7966C88.5307 64.8442 88.4361 64.9236 88.3732 65.0267C62.4449 103.763 55.3421 141.547 58.8265 178.863C58.8423 179.046 58.9447 179.22 59.0867 179.331C76.1934 191.894 92.7642 199.521 109.027 204.576C109.288 204.655 109.563 204.56 109.729 204.346C113.576 199.092 117.005 193.553 119.946 187.728C120.119 187.386 119.953 186.982 119.599 186.847C114.159 184.783 108.98 182.268 103.998 179.411C103.604 179.181 103.572 178.617 103.935 178.347C104.983 177.561 106.032 176.744 107.033 175.919C107.214 175.768 107.466 175.736 107.679 175.831C140.411 190.775 175.846 190.775 208.191 175.831C208.404 175.728 208.657 175.76 208.846 175.911C209.847 176.736 210.895 177.561 211.952 178.347C212.314 178.617 212.291 179.181 211.897 179.411C206.914 182.323 201.735 184.783 196.288 186.839C195.933 186.974 195.775 187.386 195.949 187.728C198.952 193.545 202.381 199.084 206.157 204.338C206.315 204.56 206.599 204.655 206.859 204.576C223.201 199.521 239.772 191.894 256.879 179.331C257.028 179.22 257.123 179.053 257.139 178.871C261.309 135.73 250.154 98.2554 227.568 65.0346C227.513 64.9236 227.419 64.8442 227.308 64.7966ZM124.834 156.142C114.979 156.142 106.859 147.095 106.859 135.984C106.859 124.873 114.822 115.826 124.834 115.826C134.924 115.826 142.965 124.953 142.807 135.984C142.807 147.095 134.845 156.142 124.834 156.142ZM191.29 156.142C181.435 156.142 173.316 147.095 173.316 135.984C173.316 124.873 181.278 115.826 191.29 115.826C201.38 115.826 209.421 124.953 209.264 135.984C209.264 147.095 201.38 156.142 191.29 156.142Z" fill="white"/>
</g>
<text x="430" y="150" font-family="Arial, sans-serif" font-size="84" font-weight="bold" fill="white" text-anchor="middle">m0ln1z</text>
</g>
<defs>
<clipPath id="clip0_1_2">
<rect width="614" height="256" fill="white"/>
</clipPath>
</defs>
</svg>
